# xmcd
#
# Track frame offsets: 
#        150
#        16885
#        31565
#        47481
#        61995
#        80490
#        98401
#        114422
#        129884
#        145978
#        162286
#        178399
#        192466
#
# Disc length: 2763 seconds
#
# Revision: 0
# Processed by: cddbd v1.5.2PL0 Copyright (c) Steve Scherf et al.
# Submitted via: ExactAudioCopy v1.0b1
#
DISCID=9f0ac90d
DTITLE=PK and Dansefolket - Heng Deg På
DYEAR=2006
DGENRE=Folk
TTITLE0=Vår Gamle Jukebox
TTITLE1=Heng Deg På
TTITLE2=Engla, Dei Finns
TTITLE3=Lille Vakre Anna
TTITLE4=Mens Du Ligg Å Drøyme
TTITLE5=Stopp Igjen
TTITLE6=Ta Deg Litt Tid
TTITLE7=Sei En Dag
TTITLE8=Heimplassen
TTITLE9=Big Bamboo
TTITLE10=Berre Du
TTITLE11=No Må Det Jaggu Meg Vær Nok
TTITLE12=Sein Kveld
EXTD=
EXTT0=
EXTT1=
EXTT2=
EXTT3=
EXTT4=
EXTT5=
EXTT6=
EXTT7=
EXTT8=
EXTT9=
EXTT10=
EXTT11=
EXTT12=
PLAYORDER=
